<?xml version="1.0" encoding="UTF-8"?>
<svg version="1.1" xmlns="http://www.w3.org/2000/svg" width="200" height="200">
<path d="M0 0 C66 0 132 0 200 0 C200 66 200 132 200 200 C134 200 68 200 0 200 C0 134 0 68 0 0 Z " fill="#855CCD" transform="translate(0,0)"/>
<path d="M0 0 C32.34 0 64.68 0 98 0 C98 6.6 98 13.2 98 20 C106.91 20 115.82 20 125 20 C122.75 30.125 122.75 30.125 120.875 34.5625 C120.34519531 35.83287109 120.34519531 35.83287109 119.8046875 37.12890625 C119.53914062 37.74636719 119.27359375 38.36382812 119 39 C117.35 39 115.7 39 114 39 C114.03800705 49.24872723 114.09729554 59.49708773 114.18390274 69.74552631 C114.22344453 74.50411184 114.25559996 79.26251046 114.27099609 84.02124023 C114.28611877 88.61207068 114.32048543 93.20238751 114.36830902 97.79298973 C114.38316832 99.54605843 114.39104361 101.29920045 114.39188385 103.05233192 C114.3942417 105.50460461 114.42122317 107.95544411 114.45410156 110.4074707 C114.4490712 111.13539322 114.44404083 111.86331573 114.43885803 112.61329651 C114.44122497 114.87268191 114.44122497 114.87268191 115 118 C116.93883058 119.76168242 116.93883058 119.76168242 119 121 C119.25 124.6875 119.25 124.6875 119 128 C119.639375 128.144375 120.27875 128.28875 120.9375 128.4375 C123 129 123 129 124 130 C124 132.64 124 135.28 124 138 C107.5 138 91 138 74 138 C74 131 74 131 75.3125 129.0625 C77 128 77 128 80 128 C79.95875 126.72125 79.9175 125.4425 79.875 124.125 C79.8046875 121.9453125 79.8046875 121.9453125 80 120 C80.66 119.34 81.32 118.68 82 118 C82.31920565 115.92336011 82.31920565 115.92336011 82.29052734 113.50952148 C82.30328705 112.57772568 82.31604675 111.64592987 82.32919312 110.68589783 C82.33141876 109.67451248 82.33364441 108.66312714 82.3359375 107.62109375 C82.3425943 106.57985855 82.3492511 105.53862335 82.35610962 104.46583557 C82.3662532 102.25580616 82.37092611 100.04574602 82.37060547 97.83569336 C82.37495122 94.47522289 82.41117742 91.11609487 82.44921875 87.75585938 C82.45509223 85.60677531 82.45905807 83.45768502 82.4609375 81.30859375 C82.47530853 80.31137802 82.48967957 79.31416229 82.50448608 78.28672791 C82.44148534 68.52052993 78.92231078 59.99595238 72 53 C62.15497533 45.76855679 53.11757873 43.98699606 41 45 C37.59556216 45.83486214 34.94037316 47.11055869 32 49 C31.21882813 49.49757812 30.43765625 49.99515625 29.6328125 50.5078125 C21.95854002 55.91754556 17.87974088 62.81992497 16 72 C15.6812949 75.58066123 15.62872607 79.15273072 15.5859375 82.74609375 C15.56657135 83.75720718 15.5472052 84.76832062 15.5272522 85.81007385 C15.4677801 89.01913182 15.42120084 92.22822628 15.375 95.4375 C15.33679043 97.62175988 15.29773698 99.80600517 15.2578125 101.99023438 C15.16210542 107.32669281 15.07696443 112.6632401 15 118 C15.639375 118.144375 16.27875 118.28875 16.9375 118.4375 C19 119 19 119 20 120 C20.14115161 122.67058851 20.04247107 125.32432238 20 128 C20.928125 128.185625 20.928125 128.185625 21.875 128.375 C24 129 24 129 26 131 C26 133.31 26 135.62 26 138 C9.5 138 -7 138 -24 138 C-24 130 -24 130 -22 128 C-21.01 128 -20.02 128 -19 128 C-19 125.36 -19 122.72 -19 120 C-17.02 119.01 -17.02 119.01 -15 118 C-15 92.26 -15 66.52 -15 40 C-16.65 40 -18.3 40 -20 40 C-20.84003448 37.2518872 -21.67222151 34.50180419 -22.5 31.75 C-22.85771484 30.58404297 -22.85771484 30.58404297 -23.22265625 29.39453125 C-23.44824219 28.64042969 -23.67382812 27.88632812 -23.90625 27.109375 C-24.11572266 26.41811523 -24.32519531 25.72685547 -24.54101562 25.01464844 C-25 23 -25 23 -25 19 C-16.75 19 -8.5 19 0 19 C0 12.73 0 6.46 0 0 Z " fill="#FCFCFD" transform="translate(51,31)"/>
</svg>
